<svg id="visual" viewBox="0 0 675 900" width="675" height="900" xmlns="http://www.w3.org/2000/svg" xmlns:xlink="http://www.w3.org/1999/xlink" version="1.1"><rect x="0" y="0" width="675" height="900" fill="#2563eb"></rect><path d="M491 900L497.5 878.5C504 857 517 814 521.2 771.2C525.3 728.3 520.7 685.7 520 642.8C519.3 600 522.7 557 528.8 514.2C535 471.3 544 428.7 534.5 385.8C525 343 497 300 493.8 257.2C490.7 214.3 512.3 171.7 521.8 128.8C531.3 86 528.7 43 527.3 21.5L526 0L675 0L675 21.5C675 43 675 86 675 128.8C675 171.7 675 214.3 675 257.2C675 300 675 343 675 385.8C675 428.7 675 471.3 675 514.2C675 557 675 600 675 642.8C675 685.7 675 728.3 675 771.2C675 814 675 857 675 878.5L675 900Z" fill="#1d4ed8"></path><path d="M593 900L594.2 878.5C595.3 857 597.7 814 597.8 771.2C598 728.3 596 685.7 586.5 642.8C577 600 560 557 558.2 514.2C556.3 471.3 569.7 428.7 577.8 385.8C586 343 589 300 589.7 257.2C590.3 214.3 588.7 171.7 585.8 128.8C583 86 579 43 577 21.5L575 0L675 0L675 21.5C675 43 675 86 675 128.8C675 171.7 675 214.3 675 257.2C675 300 675 343 675 385.8C675 428.7 675 471.3 675 514.2C675 557 675 600 675 642.8C675 685.7 675 728.3 675 771.2C675 814 675 857 675 878.5L675 900Z" fill="#1e47c3"></path><path d="M579 900L581.8 878.5C584.7 857 590.3 814 600.2 771.2C610 728.3 624 685.7 623 642.8C622 600 606 557 606 514.2C606 471.3 622 428.7 626.7 385.8C631.3 343 624.7 300 617.5 257.2C610.3 214.3 602.7 171.7 603.8 128.8C605 86 615 43 620 21.5L625 0L675 0L675 21.5C675 43 675 86 675 128.8C675 171.7 675 214.3 675 257.2C675 300 675 343 675 385.8C675 428.7 675 471.3 675 514.2C675 557 675 600 675 642.8C675 685.7 675 728.3 675 771.2C675 814 675 857 675 878.5L675 900Z" fill="#1e40af"></path></svg>